<svg width="12" height="6" viewBox="0 0 12 6" fill="none" xmlns="http://www.w3.org/2000/svg">
<path opacity="0.6" fill-rule="evenodd" clip-rule="evenodd" d="M0.856936 0.79871C0.85746 1.01748 0.952821 1.23629 1.14154 1.40358L5.02211 4.84432L6.32756 6L7.6313 4.84432L11.5033 1.41234C11.8685 1.0887 11.8779 0.569022 11.5391 0.228905C11.1555 -0.0762284 10.5682 -0.0715785 10.1979 0.256665L6.32756 3.68864L2.44529 0.247899C2.0795 -0.0763474 1.49497 -0.0808185 1.11598 0.224522C0.946771 0.388737 0.85644 0.592251 0.856936 0.79871V0.79871ZM1.11598 0.224522C1.12608 0.21473 1.12914 0.201864 1.13984 0.192379L1.07849 0.24644C1.08952 0.236656 1.10455 0.233731 1.11598 0.224522V0.224522ZM11.5391 0.228936C11.5522 0.239334 11.5692 0.24264 11.5817 0.253771L11.5068 0.1851C11.5213 0.197959 11.5257 0.215478 11.5391 0.228928V0.228936Z" fill="#2F2F30"/>
</svg>
